<?xml version="1.0" standalone="no"?>
<!DOCTYPE svg PUBLIC "-//W3C//DTD SVG 20010904//EN"
 "http://www.w3.org/TR/2001/REC-SVG-20010904/DTD/svg10.dtd">
<svg version="1.0" xmlns="http://www.w3.org/2000/svg"
 width="512.000000pt" height="362.000000pt" viewBox="0 0 512.000000 362.000000"
 preserveAspectRatio="xMidYMid meet">
<metadata>
Created by potrace 1.15, written by Peter Selinger 2001-2017
</metadata>
<g transform="translate(0.000000,362.000000) scale(0.100000,-0.100000)"
fill="#000000" stroke="none">
<path d="M2355 3164 c-5 -1 -27 -5 -48 -9 -28 -4 -52 -20 -87 -54 -81 -80
-102 -137 -146 -396 -14 -82 -27 -161 -30 -175 -2 -14 -11 -65 -19 -115 -43
-257 -45 -265 -69 -265 -8 0 -71 -18 -142 -41 -175 -55 -355 -111 -499 -155
-66 -20 -137 -45 -158 -56 -51 -25 -123 -92 -142 -132 -44 -87 -22 -194 57
-281 67 -74 116 -102 323 -190 99 -42 194 -82 210 -90 79 -36 79 -36 131 1 27
19 111 75 187 126 75 50 137 94 137 98 0 5 -41 24 -185 86 -16 7 -56 24 -88
38 -32 14 -60 26 -62 26 -2 0 -33 13 -67 28 -35 16 -78 35 -97 42 l-34 14 39
16 c21 9 183 65 359 125 176 59 325 114 331 121 6 8 14 33 18 57 3 23 22 123
41 222 20 99 48 244 63 322 l27 142 70 -119 c39 -66 73 -120 78 -120 4 0 7 -4
7 -9 0 -12 186 -321 203 -338 9 -9 25 -9 72 3 33 8 71 16 85 19 14 3 81 18
150 35 69 17 172 41 230 55 58 13 128 31 157 38 l52 14 -63 -76 c-86 -104
-258 -316 -370 -455 -17 -22 -37 -45 -43 -52 -7 -7 -13 -18 -13 -24 0 -6 72
-153 159 -326 105 -207 153 -313 143 -310 -10 2 -78 21 -152 41 -74 21 -182
51 -240 67 -58 17 -114 33 -124 36 -16 4 -18 1 -13 -19 4 -14 13 -70 22 -125
8 -54 19 -126 25 -159 5 -33 10 -63 10 -66 0 -4 21 -13 48 -22 26 -8 108 -34
182 -57 74 -24 175 -56 224 -73 82 -27 96 -29 200 -25 101 4 118 7 160 32 93
55 124 151 92 288 -14 62 -102 250 -214 456 -24 46 -64 123 -87 171 l-43 87
32 36 c17 19 40 47 51 60 11 14 43 52 71 84 29 33 69 80 90 105 22 25 92 107
156 181 165 190 230 304 230 405 0 56 -23 90 -78 118 -33 17 -58 20 -154 19
-113 -1 -123 -3 -477 -97 -199 -54 -368 -97 -375 -97 -8 0 -22 15 -31 33 -17
33 -23 42 -69 115 -16 24 -28 45 -28 48 0 10 -194 329 -202 332 -5 2 -8 9 -8
16 0 21 -112 130 -150 148 -35 16 -96 28 -115 22z"/>
</g>
</svg>
